<?xml version="1.0" encoding="utf-8"?>
<!-- Generator: Adobe Illustrator 16.0.0, SVG Export Plug-In . SVG Version: 6.00 Build 0)  -->
<!DOCTYPE svg PUBLIC "-//W3C//DTD SVG 1.1//EN" "http://www.w3.org/Graphics/SVG/1.1/DTD/svg11.dtd">
<svg version="1.1" id="Layer_1" xmlns="http://www.w3.org/2000/svg" xmlns:xlink="http://www.w3.org/1999/xlink" x="0px" y="0px"
	 width="500px" height="500px" viewBox="0 0 500 500" enable-background="new 0 0 500 500" xml:space="preserve">
<g>
	<g>
		<path fill-rule="evenodd" clip-rule="evenodd" d="M300.134,187.333c22.429-9.854,59.575-28.2,38.672-73.489
			C326.541,87.231,362.801,62,362.801,62s-20.119,6.555-36.363,20.346c-16.244,13.791-17.521,40.135-13.152,52.504
			C320.253,154.516,313.285,167.646,300.134,187.333z M49.466,199.867c0,100.638,89.774,175.467,200.534,175.467
			c110.739,0,200.534-74.829,200.534-175.467H49.466z M149.733,325.201l-75.2-100.268c0,0,75.2,75.2,112.8,87.733L149.733,325.201z
			 M276.139,106.485c-12.266-29.272,23.995-57.019,23.995-57.019s-20.12,7.215-36.363,22.387
			c-16.244,15.151-17.522,44.155-13.152,57.74c6.967,21.665,0,36.095-13.152,57.74C259.895,176.511,297.041,156.289,276.139,106.485
			z M137.2,450.534h50.133l50.134-75.2h-50.134L137.2,450.534z M262.533,375.334l50.134,75.2h50.134l-50.134-75.2H262.533z
			 M205.742,116.008c-9.833-21.294,19.192-41.476,19.192-41.476s-16.1,5.257-29.087,16.285
			c-13.007,11.008-14.018,32.117-10.534,41.991c5.566,15.749,0,26.242-10.513,41.991
			C192.755,166.925,222.459,152.228,205.742,116.008z"/>
	</g>
</g>
</svg>
