<?xml version="1.0" encoding="utf-8"?>
<!-- Generator: Adobe Illustrator 16.0.0, SVG Export Plug-In . SVG Version: 6.00 Build 0)  -->
<!DOCTYPE svg PUBLIC "-//W3C//DTD SVG 1.1//EN" "http://www.w3.org/Graphics/SVG/1.1/DTD/svg11.dtd">
<svg version="1.1" id="Layer_1" xmlns="http://www.w3.org/2000/svg" xmlns:xlink="http://www.w3.org/1999/xlink" x="0px" y="0px"
	 width="500px" height="500px" viewBox="0 0 500 500" enable-background="new 0 0 500 500" xml:space="preserve">
<path d="M400.869,449.004c-3.888,3.753-10.027,6.602-19.611,6.602H118.726c-9.584,0-15.704-2.811-19.611-6.602
	c-8.353-8.064-6.64-29.484-6.64-42.283V221.769c0-12.779-1.713-34.18,6.659-42.225c3.907-3.733,10.008-6.524,19.592-6.524
	c0,0,5.909,0,13.184,0c7.256,0,12.991-10.412,14.319-23.133C157.41,41.84,246.96,44.399,246.96,44.399
	c74.058,0,97.133,68.669,104.197,105.66c2.405,12.567,9.084,22.96,16.571,22.96h13.51c9.604,0,15.705,2.791,19.611,6.524
	c8.372,8.045,6.679,29.446,6.679,42.225v184.952C407.528,419.52,409.222,440.939,400.869,449.004z M224.635,71.228
	c-37.067,12.009-49.038,52.58-52.868,78.715c-1.867,12.664,8.795,23.076,21.863,23.076h113.127
	c13.067,0,23.845-10.412,22.574-23.133c-6.101-60.028-36.047-77.195-57.853-81.583C258.682,65.762,237.049,67.187,224.635,71.228z
	 M357.604,378.506H142.398c-13.068,0-23.672,5.736-23.672,12.838v12.855c0,14.185,11.759,25.693,26.271,25.693h210.01
	c14.492,0,26.252-11.509,26.252-25.693c0,0,0-5.754,0-12.855S370.653,378.506,357.604,378.506z"/>
</svg>
