<?xml version="1.0" encoding="utf-8"?>
<!-- Generator: Adobe Illustrator 16.0.0, SVG Export Plug-In . SVG Version: 6.00 Build 0)  -->
<!DOCTYPE svg PUBLIC "-//W3C//DTD SVG 1.1//EN" "http://www.w3.org/Graphics/SVG/1.1/DTD/svg11.dtd">
<svg version="1.1" id="Layer_1" xmlns="http://www.w3.org/2000/svg" xmlns:xlink="http://www.w3.org/1999/xlink" x="0px" y="0px"
	 width="500px" height="500px" viewBox="0 0 500 500" enable-background="new 0 0 500 500" xml:space="preserve">
<path d="M361.688,385.756c-2.377,0-4.779-0.667-6.9-2.069c-5.729-3.788-7.275-11.448-3.462-17.117
	c3.702-5.489,3.65-22.427,2.188-32.541c-0.086-0.573-0.128-1.163-0.128-1.753c0-16.1,23.948-36.295,38.227-46.896
	c2.77-2.043,6.259-2.873,9.67-2.266c6.147,1.043,21.084,1.676,27.855-3.121c1.94-1.385,2.941-3.061,3.343-5.6
	c0.479-3.027,0.658-7.071-1.205-9.08c-2.479-2.659-8.627-3.146-10.491-3.001c-5.608,0.401-10.866-2.993-12.705-8.302
	c-1.676-4.84-0.162-10.141,3.693-13.39c0.103-1.906-1.146-6.182-4.352-8.67c-3.429-2.659-8.276-2.171-14.381,1.454
	c-10.567,6.275-4.317,19.442-3.574,20.922c2.326,4.607,1.522,10.157-2.018,13.928c-6.164,6.574-38.201,39.338-63.142,39.338
	c-56.113,0-86.897,19.861-91.497,59.021c-0.795,6.763-6.994,11.61-13.816,10.824c-6.84-0.778-11.739-6.908-10.944-13.681
	c3.548-30.189,23.358-80.839,116.257-80.839c8.328,0,25.83-12.723,39.612-26.12c-3.72-13.466-3.206-32.969,16.296-44.554
	c22.436-13.33,41.664-4.942,50.753,9.276c3.864,6.054,5.754,12.62,5.754,18.741c4.463,1.616,9.046,4.207,12.885,8.319
	c4.754,5.113,9.909,14.398,7.507,29.626c-1.437,9.088-6.113,16.663-13.526,21.888c-13.03,9.208-31.532,8.951-40.954,8.054
	c-11.517,9.097-22.161,19.784-24.171,24.385c1.052,8.559,3.112,33.618-6.395,47.726
	C369.664,383.823,365.714,385.756,361.688,385.756z"/>
<path fill="none" d="M407.874,402.214c-1.18,0-2.394-0.162-3.582-0.521c-6.601-1.958-10.337-8.841-8.362-15.364
	c9.799-32.327-19.434-55.703-20.683-56.669c-5.386-4.224-6.326-11.97-2.095-17.322c4.241-5.344,12.021-6.31,17.442-2.129
	c1.804,1.386,43.964,34.533,29.215,83.217C418.186,398.769,413.235,402.214,407.874,402.214z"/>
<path d="M79.621,402.214c-6.105,0-11.44-4.438-12.321-10.602c-5.301-36.705,38.561-95.657,148.487-144.64
	c91.361-40.715,139.428,24,139.907,24.658c4.002,5.549,2.702,13.252-2.898,17.22c-5.583,3.941-13.338,2.693-17.355-2.813
	c-1.548-2.104-37.244-48.717-109.427-16.544c-103.472,46.102-137.124,97.229-134.038,118.64c0.975,6.736-3.762,12.995-10.576,13.953
	C80.8,402.171,80.202,402.214,79.621,402.214z"/>
<path d="M456.779,397.486c-1.932-4.609-6.472-7.609-11.517-7.609H54.706c-5.01,0-9.516,2.992-11.457,7.558
	c-1.949,4.574-0.923,9.884,2.582,13.432c0.188,0.188,4.891,5.02,28.497,32.276c2.368,2.744,5.822,4.31,9.465,4.31h332.383
	c3.643,0,7.097-1.573,9.465-4.31c23.598-27.257,28.309-32.088,28.429-32.199C457.644,407.404,458.703,402.095,456.779,397.486z"/>
<path d="M198.841,225.315c-3.189,0-6.387-1.205-8.815-3.607c-4.874-4.822-4.874-12.646,0-17.451c4.07-4.036,12.32-23-2.574-56.19
	c-17.792-39.629,9.927-66.331,11.115-67.442c5.001-4.694,12.885-4.488,17.621,0.445c4.711,4.924,4.532,12.679-0.385,17.382
	c-1.735,1.693-15.886,16.629-5.574,39.586c19.904,44.331,7.738,73.452-2.582,83.67C205.219,224.11,202.03,225.315,198.841,225.315z"
	/>
<path d="M265.954,200.632c-3.189,0-6.379-1.205-8.815-3.608c-4.878-4.822-4.878-12.637,0-17.451
	c4.069-4.035,12.329-22.999-2.573-56.198c-17.797-39.621,9.926-66.322,11.114-67.442c5.002-4.685,12.885-4.48,17.622,0.453
	c4.711,4.925,4.54,12.671-0.385,17.382c-1.728,1.693-15.878,16.629-5.575,39.578c19.904,44.349,7.747,73.461-2.573,83.678
	C272.332,199.435,269.143,200.632,265.954,200.632z"/>
<path d="M331.797,221.203c-3.189,0-6.379-1.214-8.815-3.616c-4.873-4.814-4.873-12.629,0-17.451
	c4.07-4.027,12.329-22.991-2.573-56.199c-17.792-39.62,9.927-66.322,11.115-67.434c5.001-4.694,12.885-4.48,17.621,0.453
	c4.711,4.917,4.531,12.671-0.385,17.382c-1.735,1.693-15.886,16.629-5.574,39.578c19.896,44.34,7.746,73.452-2.582,83.678
	C338.175,219.998,334.985,221.203,331.797,221.203z"/>
</svg>
