<?xml version="1.0" encoding="utf-8"?>
<!-- Generator: Adobe Illustrator 16.0.0, SVG Export Plug-In . SVG Version: 6.00 Build 0)  -->
<!DOCTYPE svg PUBLIC "-//W3C//DTD SVG 1.1//EN" "http://www.w3.org/Graphics/SVG/1.1/DTD/svg11.dtd">
<svg version="1.1" id="Layer_1" xmlns="http://www.w3.org/2000/svg" xmlns:xlink="http://www.w3.org/1999/xlink" x="0px" y="0px"
	 width="154.903px" height="21.33px" viewBox="0 0 154.903 21.33" enable-background="new 0 0 154.903 21.33" xml:space="preserve">
<g>
	<path fill="#F37346" d="M9.69,7.02L5.88,0.06H0v0.811L7.05,12.75v8.31h5.49v-8.31l7.02-11.879V0.06h-5.82L9.93,7.02H9.69z"/>
	<path fill="#F37346" d="M32.286,21.33c4.41,0,8.49-2.49,8.49-7.2V0.06h-5.43v13.95c0,1.739-1.56,2.488-3.03,2.488
		c-1.56,0-3.09-0.749-3.09-2.488V0.06h-5.49v14.069C23.736,18.839,27.846,21.33,32.286,21.33z"/>
	<path fill="#F37346" d="M57.578,9.09L49.239,0h-1.95v21.059h5.49V11.37l4.47,4.68h0.63l4.47-4.68v9.689h5.49V0h-1.95L57.578,9.09z"
		/>
	<path fill="#F37346" d="M74.201,13.259h10.83V8.88h-10.83V13.259z"/>
	<path fill="#F37346" d="M96.754,7.02l-3.81-6.96h-5.88v0.811l7.05,11.879v8.31h5.489v-8.31l7.021-11.879V0.06h-5.819l-3.811,6.96
		H96.754z"/>
	<path fill="#F37346" d="M119.35,21.33c4.41,0,8.49-2.49,8.49-7.2V0.06h-5.43v13.95c0,1.739-1.561,2.488-3.03,2.488
		c-1.56,0-3.09-0.749-3.09-2.488V0.06h-5.489v14.069C110.801,18.839,114.911,21.33,119.35,21.33z"/>
	<path fill="#F37346" d="M144.643,9.09L136.303,0h-1.949v21.059h5.489V11.37l4.47,4.68h0.63l4.47-4.68v9.689h5.49V0h-1.95
		L144.643,9.09z"/>
</g>
</svg>
