<?xml version="1.0" encoding="utf-8"?>
<!-- Generator: Adobe Illustrator 16.0.0, SVG Export Plug-In . SVG Version: 6.00 Build 0)  -->
<!DOCTYPE svg PUBLIC "-//W3C//DTD SVG 1.1//EN" "http://www.w3.org/Graphics/SVG/1.1/DTD/svg11.dtd">
<svg version="1.1" id="Layer_1" xmlns="http://www.w3.org/2000/svg" xmlns:xlink="http://www.w3.org/1999/xlink" x="0px" y="0px"
	 width="500px" height="500px" viewBox="0 0 500 500" enable-background="new 0 0 500 500" xml:space="preserve">
<path fill-rule="evenodd" clip-rule="evenodd" d="M320.609,40.983H179.4c-20.865,0-37.95,17.275-37.95,38.383v341.278
	c0,21.112,17.085,38.373,37.95,38.373h141.209c20.865,0,37.939-17.261,37.939-38.373V79.366
	C358.549,58.259,341.475,40.983,320.609,40.983z M236.496,82.878h26.688c1.854,0,3.378,1.874,3.378,4.16s-1.524,4.161-3.378,4.161
	h-26.688c-1.854,0-3.389-1.875-3.389-4.161S234.642,82.878,236.496,82.878z M249.956,433.95c-9.228,0-16.694-7.518-16.694-16.766
	s7.467-16.756,16.694-16.756c9.191,0,16.668,7.508,16.668,16.756S259.147,433.95,249.956,433.95z M325.264,390.12
	c0,1.668-6.838,2.019-8.506,2.019H183.025c-1.647,0-8.29-0.351-8.29-2.019V117.708c0-1.689-1.72-1.396-0.062-1.396H325.12
	c1.647,0,0.144-0.293,0.144,1.396V390.12z"/>
</svg>
