<?xml version="1.0" encoding="utf-8"?>
<!-- Generator: Adobe Illustrator 16.0.0, SVG Export Plug-In . SVG Version: 6.00 Build 0)  -->
<!DOCTYPE svg PUBLIC "-//W3C//DTD SVG 1.1//EN" "http://www.w3.org/Graphics/SVG/1.1/DTD/svg11.dtd">
<svg version="1.1" id="Layer_1" xmlns="http://www.w3.org/2000/svg" xmlns:xlink="http://www.w3.org/1999/xlink" x="0px" y="0px"
	 width="500px" height="500px" viewBox="0 0 500 500" enable-background="new 0 0 500 500" xml:space="preserve">
<path d="M239.727,145.962c0-47.533-37.304-86.073-83.301-86.073c-45.975,0-83.278,38.54-83.278,86.073
	c0,47.544,37.303,86.084,83.278,86.084C202.423,232.046,239.727,193.506,239.727,145.962z M114.874,144.453
	c0-23.358,18.619-42.293,41.596-42.293c22.987,0,41.596,18.935,41.596,42.293c0,23.353-18.608,42.288-41.596,42.288
	C133.493,186.74,114.874,167.806,114.874,144.453z"/>
<path d="M357.366,149.399l-9.914-10.502c-5.316-5.491-13.923-5.48-19.239,0.005L142.645,330.696c-5.306,5.491-5.306,14.392,0,19.894
	l9.925,10.503c5.295,5.49,13.923,5.49,19.24-0.011l185.557-191.79C362.684,163.802,362.684,154.89,357.366,149.399z"/>
<path d="M343.574,267.943c-45.997,0-83.279,38.534-83.279,86.09c0,47.533,37.282,86.078,83.279,86.078s83.278-38.557,83.278-86.078
	C426.853,306.478,389.571,267.943,343.574,267.943z M343.53,397.818c-22.987,0-41.596-18.936-41.596-42.282
	c0-23.369,18.63-42.304,41.596-42.293c22.987-0.011,41.618,18.924,41.618,42.293C385.148,378.883,366.518,397.818,343.53,397.818z"
	/>
</svg>
