<?xml version="1.0" encoding="utf-8"?>
<!-- Generator: Adobe Illustrator 16.0.0, SVG Export Plug-In . SVG Version: 6.00 Build 0)  -->
<!DOCTYPE svg PUBLIC "-//W3C//DTD SVG 1.1//EN" "http://www.w3.org/Graphics/SVG/1.1/DTD/svg11.dtd">
<svg version="1.1" id="Layer_1" xmlns="http://www.w3.org/2000/svg" xmlns:xlink="http://www.w3.org/1999/xlink" x="0px" y="0px"
	 width="500px" height="500px" viewBox="0 0 500 500" enable-background="new 0 0 500 500" xml:space="preserve">
<g>
	<path d="M228.562,199.311c2.177,3.781,7.069,5.087,10.862,2.91l17.633-10.197c3.793-2.177,5.099-7.058,2.899-10.851l-33.549-58.125
		c-2.188-3.792-7.069-5.099-10.862-2.91l-17.633,10.186c-3.793,2.188-5.099,7.07-2.91,10.851L228.562,199.311z"/>
	<path d="M318.094,281.853c-2.188-3.804-7.081-5.099-10.862-2.91l-17.646,10.186c-3.792,2.188-5.098,7.059-2.898,10.862
		l33.549,58.113c2.199,3.793,7.069,5.11,10.861,2.911l17.646-10.175c3.781-2.2,5.087-7.069,2.91-10.862L318.094,281.853z"/>
	<path d="M437.655,249.988c0-51.846-21.002-98.777-54.951-132.727c-33.938-33.949-80.869-54.94-132.727-54.94v-0.045h-0.011v0.045
		c-51.847,0-98.777,20.991-132.727,54.94c-33.938,33.949-54.94,80.88-54.94,132.738c0,51.869,21.002,98.789,54.94,132.727
		c33.95,33.949,80.88,54.951,132.738,54.951v0.047h0.011v-0.047c51.858,0,98.777-21.002,132.716-54.951
		c33.949-33.938,54.951-80.869,54.951-132.727h0.046v-0.012H437.655z M84.642,250c0-45.602,18.527-86.941,48.455-116.869
		c29.951-29.951,71.267-48.467,116.87-48.467v0.046h0.011v-0.046c41.397,0,79.162,15.365,108.184,40.561L216.223,267.164
		c-11.618-23.718-14.506-50.518,1.833-59.947c-6.817-11.813-28.782-49.842-35.6-61.666c-15.857,9.166-28.002,17.232-28.564,37.822
		c-0.848,30.855,14.368,72.551,36.447,109.674l-65.137,65.138C100.006,329.15,84.642,291.396,84.642,250z M415.301,250
		c0,45.613-18.516,86.93-48.455,116.869c-29.927,29.939-71.256,48.455-116.857,48.455v-0.034h-0.011v0.034
		c-41.385,0-79.162-15.354-108.184-40.549l61.517-61.528c17.886,25.608,38.567,47.194,58.492,58.595
		c18.779,10.725,32.494,4.835,48.684-4.514c-6.806-11.802-28.771-49.854-35.588-61.666c-15.032,8.685-32.368-1.444-45.819-18.172
		l145.674-145.675c25.195,29.034,40.549,66.799,40.549,108.173h-0.034V250H415.301z"/>
</g>
</svg>
